<svg xmlns="http://www.w3.org/2000/svg" width="306.976" height="46" viewBox="0 0 306.976 46">
  <g id="LTTS_Logo" transform="translate(-56.024 -33.458)">
    <path id="Path_2" data-name="Path 2" d="M116.92,56.1A23,23,0,1,1,93.928,79.071,23.055,23.055,0,0,1,116.92,56.1M113.745,98.97l9.807-17.033-6.633.005,3.293-5.722,15.585,0-3.3,5.735-5.633-.017L116.92,99.232a20.129,20.129,0,1,0,0-40.257,18.6,18.6,0,0,0-2.373.152l-9.893,17.095H116.92L113.6,81.938H98.039l12.69-21.974a20.115,20.115,0,0,0,3.017,39.006" transform="translate(-37.904 -22.637)" fill="#112868" fill-rule="evenodd"/>
    <path id="Path_3" data-name="Path 3" d="M222.4,104.266h9.089l.527-2.416h-6.027l2.748-12.936h-3.078Zm20.594,0h3.3l-1.785-2.59a8.726,8.726,0,0,0,1.3-1.708,9.871,9.871,0,0,0,.874-1.95,11.174,11.174,0,0,0,.465-2.089h-2.684a5.811,5.811,0,0,1-.2,1.31,7.776,7.776,0,0,1-.47,1.244,9.33,9.33,0,0,1-.672,1.139l-2.222-3.185a11.85,11.85,0,0,0,1.49-.643,6.342,6.342,0,0,0,1.278-.867,3.809,3.809,0,0,0,.9-1.184,3.606,3.606,0,0,0,.336-1.593,3.049,3.049,0,0,0-.266-1.3,3.13,3.13,0,0,0-.7-.981,4.124,4.124,0,0,0-.994-.688,5.056,5.056,0,0,0-1.14-.4,4.9,4.9,0,0,0-1.141-.133,5.9,5.9,0,0,0-1.7.24,4.486,4.486,0,0,0-1.469.718,3.54,3.54,0,0,0-1.038,1.211,3.775,3.775,0,0,0-.391,1.727,4.072,4.072,0,0,0,.146,1.164,3.519,3.519,0,0,0,.38.884,8.359,8.359,0,0,0,.553.809,8.241,8.241,0,0,0-1.607.676,5.822,5.822,0,0,0-1.343,1.009,4.5,4.5,0,0,0-.929,1.361,4.589,4.589,0,0,0-.048,3.371,3.711,3.711,0,0,0,.806,1.229,4.18,4.18,0,0,0,1.193.841,6.074,6.074,0,0,0,1.456.485,7.919,7.919,0,0,0,2.713.077,9.049,9.049,0,0,0,1.137-.229,8.084,8.084,0,0,0,1.054-.355,5.086,5.086,0,0,0,.869-.477Zm-1.849-2.79a3.556,3.556,0,0,1-.768.423,5.057,5.057,0,0,1-.9.256,4.864,4.864,0,0,1-.93.088,4.111,4.111,0,0,1-1.03-.12,2.444,2.444,0,0,1-.855-.387,1.807,1.807,0,0,1-.585-.693,2.3,2.3,0,0,1-.215-1.02,2.218,2.218,0,0,1,.8-1.748,4.409,4.409,0,0,1,.814-.532,9.508,9.508,0,0,1,.938-.4Zm1.211-9.328a1.838,1.838,0,0,1-.258.955,2.466,2.466,0,0,1-.652.693,4.185,4.185,0,0,1-.861.469,7.258,7.258,0,0,1-.89.3,6.423,6.423,0,0,1-.385-.6,3.758,3.758,0,0,1-.305-.663,2.133,2.133,0,0,1-.124-.671,1.9,1.9,0,0,1,.257-1,1.663,1.663,0,0,1,.691-.617,2.222,2.222,0,0,1,.989-.212,2.011,2.011,0,0,1,.733.115,1.222,1.222,0,0,1,.577.42,1.328,1.328,0,0,1,.229.807m5.193-.818h4.334l-2.8,12.935H252.3L255.1,91.331h4.333l.506-2.417H248.081Zm18.786,0h4.333l-2.792,12.935h3.212l2.795-12.935h4.334l.506-2.417H266.868Zm20.26,8.185c.09-.418.159-.835.211-1.258a10.548,10.548,0,0,0,.077-1.271,4.6,4.6,0,0,0-.583-2.4,3.573,3.573,0,0,0-1.614-1.435,6.209,6.209,0,0,0-4.541-.092,6.078,6.078,0,0,0-1.778,1.033A6.826,6.826,0,0,0,277,95.629a7.308,7.308,0,0,0-1.2,3.954,5.731,5.731,0,0,0,.4,2.193,4.116,4.116,0,0,0,1.112,1.547,4.8,4.8,0,0,0,1.723.911,7.674,7.674,0,0,0,2.225.3,9.809,9.809,0,0,0,1.831-.186c.608-.125,1.2-.273,1.778-.453l.374-2.332a9.432,9.432,0,0,1-1.7.6,7.88,7.88,0,0,1-1.776.215,4.528,4.528,0,0,1-1.717-.283,2.082,2.082,0,0,1-1.062-.905,3.337,3.337,0,0,1-.365-1.674Zm-7.588-2.022a6.435,6.435,0,0,1,.673-1.388,2.949,2.949,0,0,1,1.005-.936,3.089,3.089,0,0,1,1.514-.338,1.826,1.826,0,0,1,1.394.491,1.933,1.933,0,0,1,.474,1.4c0,.131,0,.259-.013.387s-.03.251-.053.381Zm18.852-4.38a10.506,10.506,0,0,0-1.36-.311,10.205,10.205,0,0,0-1.587-.128,7.1,7.1,0,0,0-2.761.532,6.088,6.088,0,0,0-2.108,1.47,6.508,6.508,0,0,0-1.344,2.211,7.943,7.943,0,0,0-.475,2.761,5.465,5.465,0,0,0,.6,2.566,4.241,4.241,0,0,0,1.672,1.7,5.24,5.24,0,0,0,2.549.616,10.564,10.564,0,0,0,1.443-.1,5.169,5.169,0,0,0,1.4-.43l.327-2.329a5.865,5.865,0,0,1-.8.31,6.024,6.024,0,0,1-.822.191,4.912,4.912,0,0,1-.771.065,2.8,2.8,0,0,1-1.25-.251,1.946,1.946,0,0,1-.766-.671,2.767,2.767,0,0,1-.387-.944,4.909,4.909,0,0,1-.105-1.08,5.166,5.166,0,0,1,.243-1.573,4.528,4.528,0,0,1,.709-1.392,3.5,3.5,0,0,1,1.155-.992,3.338,3.338,0,0,1,1.57-.377,4.5,4.5,0,0,1,1.165.147,3.252,3.252,0,0,1,.986.425Zm-.305,11.152h2.948l1.207-5.7a10.251,10.251,0,0,1,.367-1.276,5.221,5.221,0,0,1,.59-1.162,2.9,2.9,0,0,1,.906-.843,2.607,2.607,0,0,1,1.309-.324,1.646,1.646,0,0,1,.833.2,1.4,1.4,0,0,1,.566.548,1.646,1.646,0,0,1,.2.832,7.292,7.292,0,0,1-.107,1.214c-.064.4-.143.777-.222,1.164l-1.1,5.343h2.95l1.19-5.5c.081-.349.164-.747.246-1.169a7.955,7.955,0,0,0,.128-1.29,3.966,3.966,0,0,0-.468-1.942,3.118,3.118,0,0,0-1.281-1.244,4.1,4.1,0,0,0-1.949-.445,4.2,4.2,0,0,0-1.217.189,4.493,4.493,0,0,0-1.082.491,5.617,5.617,0,0,0-.914.687h-.042l1.407-6.274h-2.948Zm13.44,0h2.947l1.212-5.7a10.089,10.089,0,0,1,.367-1.276,5.143,5.143,0,0,1,.589-1.162,2.869,2.869,0,0,1,.907-.843,2.583,2.583,0,0,1,1.307-.324,1.658,1.658,0,0,1,.835.2,1.362,1.362,0,0,1,.561.548,1.621,1.621,0,0,1,.209.832,7.86,7.86,0,0,1-.107,1.214c-.065.4-.144.777-.224,1.164l-1.1,5.343h2.945l1.19-5.5c.086-.349.164-.747.245-1.169a7.439,7.439,0,0,0,.129-1.29,3.922,3.922,0,0,0-.464-1.942,3.133,3.133,0,0,0-1.284-1.244,4.1,4.1,0,0,0-1.948-.445,4.183,4.183,0,0,0-1.218.189,4.463,4.463,0,0,0-1.08.491,5.458,5.458,0,0,0-.912.687h-.044l.2-1.107h-2.882c-.024.185-.056.415-.109.692s-.111.6-.18.938Zm19.273-2.024a2.312,2.312,0,0,1-1.354-.36,1.942,1.942,0,0,1-.731-.949,3.605,3.605,0,0,1-.225-1.351,6.245,6.245,0,0,1,.138-1.266,6.411,6.411,0,0,1,.423-1.249,4.517,4.517,0,0,1,.7-1.069,3.172,3.172,0,0,1,.984-.755,2.808,2.808,0,0,1,1.255-.281,2.464,2.464,0,0,1,1.087.218,1.7,1.7,0,0,1,.686.578,2.481,2.481,0,0,1,.363.862,4.7,4.7,0,0,1,.109,1.047,5.467,5.467,0,0,1-.139,1.219,5.585,5.585,0,0,1-.412,1.228,4.546,4.546,0,0,1-.687,1.077,3.2,3.2,0,0,1-.96.761,2.7,2.7,0,0,1-1.235.289m1.321-9.568a6.959,6.959,0,0,0-2.656.513,6.587,6.587,0,0,0-2.126,1.412,6.414,6.414,0,0,0-1.418,2.125,6.828,6.828,0,0,0-.508,2.634,5.83,5.83,0,0,0,.619,2.763,4.261,4.261,0,0,0,1.768,1.779,5.742,5.742,0,0,0,2.757.633,7.134,7.134,0,0,0,2.748-.519,6.241,6.241,0,0,0,2.133-1.432,6.446,6.446,0,0,0,1.383-2.182,7.7,7.7,0,0,0,.489-2.754,5.587,5.587,0,0,0-.378-2.092,4.337,4.337,0,0,0-1.066-1.568,4.672,4.672,0,0,0-1.645-.977,6.265,6.265,0,0,0-2.1-.336m6.289,11.591h2.951l3.495-16.5h-2.945Zm11.947-2.024a2.32,2.32,0,0,1-1.354-.36,1.91,1.91,0,0,1-.729-.949,3.51,3.51,0,0,1-.226-1.351,5.952,5.952,0,0,1,.562-2.514A4.574,4.574,0,0,1,348.777,96a3.146,3.146,0,0,1,.984-.755,2.832,2.832,0,0,1,1.257-.281,2.455,2.455,0,0,1,1.087.218,1.754,1.754,0,0,1,.69.578,2.5,2.5,0,0,1,.361.862,4.726,4.726,0,0,1,.107,1.047,5.8,5.8,0,0,1-.137,1.219,5.993,5.993,0,0,1-.414,1.228,4.682,4.682,0,0,1-.684,1.077,3.168,3.168,0,0,1-.963.761,2.7,2.7,0,0,1-1.235.289m1.318-9.568a6.968,6.968,0,0,0-2.654.513,6.628,6.628,0,0,0-2.124,1.412,6.371,6.371,0,0,0-1.415,2.125,6.864,6.864,0,0,0-.513,2.634,5.91,5.91,0,0,0,.616,2.763,4.325,4.325,0,0,0,1.77,1.779,5.767,5.767,0,0,0,2.759.633,7.146,7.146,0,0,0,2.748-.519,6.242,6.242,0,0,0,2.133-1.432,6.491,6.491,0,0,0,1.385-2.182,7.71,7.71,0,0,0,.491-2.754,5.544,5.544,0,0,0-.381-2.092,4.286,4.286,0,0,0-1.068-1.568,4.671,4.671,0,0,0-1.64-.977,6.311,6.311,0,0,0-2.105-.336m5.94,15.71a12,12,0,0,0,2.236.59,14.142,14.142,0,0,0,2.3.179,7.271,7.271,0,0,0,2.655-.442,4.907,4.907,0,0,0,1.859-1.232,6.461,6.461,0,0,0,1.216-1.928,12.639,12.639,0,0,0,.736-2.512l1.8-8.517c.077-.36.146-.682.211-.949s.118-.48.164-.638H367.43l-.331,1.652a3.886,3.886,0,0,0-.877-1.023,3.8,3.8,0,0,0-1.174-.657,4.2,4.2,0,0,0-1.4-.232,5.2,5.2,0,0,0-2.013.385,4.99,4.99,0,0,0-1.6,1.033,6.194,6.194,0,0,0-1.175,1.519,7.57,7.57,0,0,0-.717,1.852,8.233,8.233,0,0,0-.246,2.007,7,7,0,0,0,.227,1.8,4.7,4.7,0,0,0,.713,1.533,3.4,3.4,0,0,0,1.224,1.066,3.811,3.811,0,0,0,1.774.4,4.654,4.654,0,0,0,1.544-.256,4.179,4.179,0,0,0,1.3-.732,4.052,4.052,0,0,0,.958-1.167h.045c-.136.516-.275,1.012-.419,1.484a8.768,8.768,0,0,1-.493,1.3,3.957,3.957,0,0,1-.721,1.037,2.934,2.934,0,0,1-1.082.687,4.772,4.772,0,0,1-1.575.248,6.069,6.069,0,0,1-1.233-.126,8.891,8.891,0,0,1-1.175-.313c-.386-.131-.767-.281-1.156-.444Zm9.087-11.046a6.889,6.889,0,0,1-.121,1.306,5.813,5.813,0,0,1-.369,1.263,4.024,4.024,0,0,1-.645,1.059,2.841,2.841,0,0,1-.934.742,2.951,2.951,0,0,1-1.25.273,1.653,1.653,0,0,1-1.072-.355,2.007,2.007,0,0,1-.607-.911,3.949,3.949,0,0,1-.193-1.263,5.879,5.879,0,0,1,.113-1.118,6.4,6.4,0,0,1,.352-1.195,4.82,4.82,0,0,1,.595-1.086,2.789,2.789,0,0,1,.863-.785,2.2,2.2,0,0,1,1.134-.305,2.1,2.1,0,0,1,1.162.321,2.077,2.077,0,0,1,.726.851,2.856,2.856,0,0,1,.246,1.2m5.7-4.4,2,11.885a8.6,8.6,0,0,1-.933,1.241,2.637,2.637,0,0,1-.815.63,1.918,1.918,0,0,1-.826.177,3.428,3.428,0,0,1-.742-.087,3.869,3.869,0,0,1-.56-.18l-.657,2.242a8.328,8.328,0,0,0,1.092.228,7.376,7.376,0,0,0,1.106.082,4.56,4.56,0,0,0,1.63-.278,4.206,4.206,0,0,0,1.219-.726,5.75,5.75,0,0,0,.923-1.022,13,13,0,0,0,.74-1.143l7.675-13.05H380.5l-4.509,8.43h-.046l-1.055-8.43Zm29.062-3.606a8.927,8.927,0,0,0-1.956-.526,12.9,12.9,0,0,0-2.024-.153,8.606,8.606,0,0,0-1.729.171,6.449,6.449,0,0,0-1.557.531,4.664,4.664,0,0,0-1.271.906,3.975,3.975,0,0,0-.853,1.306,4.674,4.674,0,0,0-.312,1.729,3.811,3.811,0,0,0,.288,1.5,3.706,3.706,0,0,0,.749,1.077,6.215,6.215,0,0,0,1.025.8c.371.224.745.448,1.117.644a11.2,11.2,0,0,1,1.019.638,2.835,2.835,0,0,1,.749.753,1.825,1.825,0,0,1,.29,1.017,2.259,2.259,0,0,1-.248,1.07,2.173,2.173,0,0,1-.661.747,3.045,3.045,0,0,1-.937.431,3.913,3.913,0,0,1-1.079.148,6.261,6.261,0,0,1-1.3-.148,8.925,8.925,0,0,1-1.255-.393c-.413-.155-.814-.327-1.211-.518l-.79,2.624a16.259,16.259,0,0,0,2.155.619,10.972,10.972,0,0,0,2.225.238,10.264,10.264,0,0,0,1.951-.175,6.738,6.738,0,0,0,1.725-.551,4.644,4.644,0,0,0,1.382-.97,4.191,4.191,0,0,0,.92-1.456,5.426,5.426,0,0,0,.331-1.978,4.057,4.057,0,0,0-.287-1.576,3.842,3.842,0,0,0-.749-1.162,6.188,6.188,0,0,0-1.021-.864c-.371-.246-.746-.478-1.117-.69s-.711-.431-1.022-.65a2.967,2.967,0,0,1-.748-.715,1.58,1.58,0,0,1-.292-.916,1.443,1.443,0,0,1,.25-.835,1.722,1.722,0,0,1,.627-.539,3.3,3.3,0,0,1,.832-.3,4.38,4.38,0,0,1,.865-.087,6.021,6.021,0,0,1,1.128.1,6.854,6.854,0,0,1,1.081.278,5.794,5.794,0,0,1,.982.414Zm11.574,10.187c.087-.418.158-.835.209-1.258a10.733,10.733,0,0,0,.077-1.271,4.643,4.643,0,0,0-.582-2.4,3.564,3.564,0,0,0-1.614-1.435,6.215,6.215,0,0,0-4.543-.092,6.1,6.1,0,0,0-1.78,1.033,6.929,6.929,0,0,0-1.37,1.536,7.268,7.268,0,0,0-.886,1.882,6.971,6.971,0,0,0-.311,2.072,5.652,5.652,0,0,0,.392,2.193,4.065,4.065,0,0,0,1.11,1.547,4.817,4.817,0,0,0,1.725.911,7.684,7.684,0,0,0,2.226.3,9.81,9.81,0,0,0,1.83-.186,17.965,17.965,0,0,0,1.776-.453l.375-2.332a9.537,9.537,0,0,1-1.7.6,7.919,7.919,0,0,1-1.778.215,4.535,4.535,0,0,1-1.717-.283,2.067,2.067,0,0,1-1.062-.905,3.357,3.357,0,0,1-.364-1.674Zm-7.589-2.022a6.433,6.433,0,0,1,.672-1.388,2.912,2.912,0,0,1,1-.936,3.091,3.091,0,0,1,1.512-.338,1.848,1.848,0,0,1,1.4.491,1.949,1.949,0,0,1,.469,1.4c0,.131,0,.259-.015.387a3.2,3.2,0,0,1-.051.381Zm8.777,6.772h2.948l1.056-5.081a6.988,6.988,0,0,1,.406-1.346,4.8,4.8,0,0,1,.691-1.187,3.1,3.1,0,0,1,1.01-.84,2.888,2.888,0,0,1,1.369-.317,3.513,3.513,0,0,1,.581.044,3.132,3.132,0,0,1,.543.128l.614-2.885a4.932,4.932,0,0,0-.555-.088c-.189-.011-.379-.019-.567-.019a2.947,2.947,0,0,0-1.023.2,4.381,4.381,0,0,0-.96.534,4.618,4.618,0,0,0-.8.772,3.775,3.775,0,0,0-.557.892H418.4l.4-2.138h-2.818c-.086.535-.175,1.039-.264,1.524Zm11.462,0h3.257l6.62-11.332h-3.121l-4.467,8.318H427.4l-1.146-8.318h-3.014Zm9.327,0h2.949l2.42-11.332h-2.947Zm2.878-13.394h2.951l.615-2.816h-2.946Zm13.311,2.242a10.722,10.722,0,0,0-1.358-.311,10.253,10.253,0,0,0-1.588-.128,7.129,7.129,0,0,0-2.764.532,6.091,6.091,0,0,0-2.106,1.47,6.462,6.462,0,0,0-1.346,2.211,8.038,8.038,0,0,0-.473,2.761,5.417,5.417,0,0,0,.6,2.566,4.225,4.225,0,0,0,1.672,1.7,5.244,5.244,0,0,0,2.548.616,10.644,10.644,0,0,0,1.446-.1A5.175,5.175,0,0,0,448.7,104l.328-2.329a6,6,0,0,1-.8.31,6.091,6.091,0,0,1-.822.191,4.929,4.929,0,0,1-.773.065,2.777,2.777,0,0,1-1.245-.251,1.9,1.9,0,0,1-.766-.671,2.622,2.622,0,0,1-.391-.944,4.852,4.852,0,0,1-.105-1.08,5.237,5.237,0,0,1,.241-1.573,4.559,4.559,0,0,1,.709-1.392,3.522,3.522,0,0,1,1.155-.992,3.341,3.341,0,0,1,1.567-.377,4.512,4.512,0,0,1,1.168.147,3.269,3.269,0,0,1,.987.425Zm10.736,6.4c.088-.418.16-.835.21-1.258a10.358,10.358,0,0,0,.077-1.271,4.617,4.617,0,0,0-.585-2.4,3.555,3.555,0,0,0-1.611-1.435,5.753,5.753,0,0,0-2.444-.477,5.824,5.824,0,0,0-2.1.385,6.1,6.1,0,0,0-1.78,1.033,6.974,6.974,0,0,0-1.373,1.536,7.2,7.2,0,0,0-.879,1.882,6.959,6.959,0,0,0-.316,2.072,5.657,5.657,0,0,0,.4,2.193,4.061,4.061,0,0,0,1.113,1.547,4.774,4.774,0,0,0,1.719.911,7.7,7.7,0,0,0,2.228.3,9.779,9.779,0,0,0,1.83-.186c.607-.125,1.2-.273,1.777-.453l.374-2.332a9.6,9.6,0,0,1-1.7.6,7.972,7.972,0,0,1-1.78.215,4.525,4.525,0,0,1-1.717-.283,2.07,2.07,0,0,1-1.061-.905,3.332,3.332,0,0,1-.366-1.674Zm-7.59-2.022a6.4,6.4,0,0,1,.676-1.388,2.9,2.9,0,0,1,1.006-.936,3.088,3.088,0,0,1,1.51-.338,1.836,1.836,0,0,1,1.4.491,1.937,1.937,0,0,1,.473,1.4c0,.131,0,.259-.013.387s-.031.251-.053.381Zm18.04-4.355a14.578,14.578,0,0,0-1.586-.333,10.848,10.848,0,0,0-1.624-.132,7.807,7.807,0,0,0-1.4.123,5.957,5.957,0,0,0-1.331.381,4.249,4.249,0,0,0-1.114.682,3.06,3.06,0,0,0-.769,1.021,3.3,3.3,0,0,0-.286,1.4,2.646,2.646,0,0,0,.281,1.219,3.265,3.265,0,0,0,.713.895,8.558,8.558,0,0,0,.918.693c.327.2.631.4.919.6a3.266,3.266,0,0,1,.713.642,1.28,1.28,0,0,1,.281.793,1.006,1.006,0,0,1-.174.587,1.339,1.339,0,0,1-.465.387,2.545,2.545,0,0,1-.65.213,4.084,4.084,0,0,1-.737.07,4.529,4.529,0,0,1-1.051-.128,5.3,5.3,0,0,1-.916-.319c-.284-.136-.569-.278-.847-.436l-.637,2.356a6.992,6.992,0,0,0,1.684.532,10.319,10.319,0,0,0,1.766.15,9.812,9.812,0,0,0,1.507-.115,6.4,6.4,0,0,0,1.385-.387,4.051,4.051,0,0,0,1.15-.707,3.1,3.1,0,0,0,.775-1.094,3.75,3.75,0,0,0,.288-1.527,2.648,2.648,0,0,0-.281-1.214,3.342,3.342,0,0,0-.713-.931,7.375,7.375,0,0,0-.917-.722c-.327-.219-.633-.426-.92-.62a3.477,3.477,0,0,1-.712-.6.967.967,0,0,1-.281-.647.894.894,0,0,1,.187-.559,1.181,1.181,0,0,1,.472-.349,2.749,2.749,0,0,1,.639-.188,4.4,4.4,0,0,1,.681-.047,4.729,4.729,0,0,1,1.236.159,10.625,10.625,0,0,1,1.184.365Z" transform="translate(-108.862 -40.13)" fill="#112868"/>
  </g>
</svg>