<?xml version="1.0" encoding="UTF-8"?>
<!-- Generator: Adobe Illustrator 28.1.0, SVG Export Plug-In . SVG Version: 6.00 Build 0)  -->
<svg xmlns="http://www.w3.org/2000/svg" xmlns:xlink="http://www.w3.org/1999/xlink" version="1.1" id="Layer_1" x="0px" y="0px" viewBox="0 0 719.89 296.45" style="enable-background:new 0 0 719.89 296.45;" xml:space="preserve">
<style type="text/css">
	.st0{fill:#6100DC;}
</style>
<g>
	<g>
		<rect x="530.27" y="71.88" class="st0" width="18.52" height="117.6"></rect>
		<path class="st0" d="M69.2,113.58L69.2,113.58c1.96-4.72-0.29-10.14-5.01-12.1l-23.84-9.88c-4.72-1.96-10.14,0.29-12.1,5.01l0,0    c-1.96,4.72,0.29,10.14,5.01,12.1l23.84,9.88C61.83,120.55,67.24,118.31,69.2,113.58z"></path>
		<path class="st0" d="M117.19,65.59L117.19,65.59c4.72-1.96,6.97-7.37,5.01-12.1l-9.88-23.84c-1.96-4.72-7.37-6.97-12.1-5.01l0,0    c-4.72,1.96-6.97,7.37-5.01,12.1l9.88,23.84C107.05,65.3,112.47,67.54,117.19,65.59z"></path>
		<path class="st0" d="M69.2,181.46L69.2,181.46c-1.96-4.72-7.37-6.97-12.1-5.01l-23.84,9.88c-4.72,1.96-6.97,7.37-5.01,12.1l0,0    c1.96,4.72,7.37,6.97,12.1,5.01l23.84-9.88C68.91,191.6,71.16,186.18,69.2,181.46z"></path>
		<path class="st0" d="M117.19,229.45L117.19,229.45c-4.72-1.96-10.14,0.29-12.1,5.01l-9.88,23.84c-1.96,4.72,0.29,10.14,5.01,12.1    l0,0c4.72,1.96,10.14-0.29,12.1-5.01l9.88-23.84C124.16,236.82,121.92,231.41,117.19,229.45z"></path>
		<path class="st0" d="M202.03,24.63L202.03,24.63c-4.72-1.96-10.14,0.29-12.1,5.01l-9.88,23.84c-1.96,4.72,0.29,10.14,5.01,12.1    l0,0c4.72,1.96,10.14-0.29,12.1-5.01l9.88-23.84C209,32.01,206.76,26.59,202.03,24.63z"></path>
		<path class="st0" d="M633.7,139.74v2.42h-18.36v-2.59c0-12.61-5.86-19.01-17.41-19.01c-11.53,0-17.4,6.4-17.4,19.01v49.9H562    v-49.9c0-23.13,13.11-36.4,35.92-36.4c10.75,0,19.67,3.13,25.82,9.05C630.34,118.58,633.7,127.84,633.7,139.74z"></path>
		<path class="st0" d="M189.07,165.13c0,15.65-12.88,26.75-37.83,26.75c-27.72,0-37.99-11.9-37.99-25.28c0-0.66,0-1.47,0.14-2.13    h18.28v0.83c0,6.85,6.69,12.4,19.57,12.4c12.24,0,19.57-3.91,19.57-12.07c0-17.62-56.42-1.3-56.42-35.88    c0-15.65,13.37-26.58,36.36-26.58c25.45,0,36.69,11.26,36.69,25.61v1.78h-18.26v-0.97c0-6.69-5.53-12.4-18.43-12.4    c-11.57,0-18.1,4.08-18.1,11.9C132.65,147.36,189.07,130.39,189.07,165.13z"></path>
		<polygon class="st0" points="209.22,105.44 190.7,105.44 226.78,190.34 214.26,220.57 232.78,220.57 280.46,105.44 261.95,105.44     235.35,169.65   "></polygon>
		<path class="st0" d="M302.69,189.59v-46.31c0-16.47,6.92-24.46,19.15-24.46c12.23,0,19.19,7.34,19.19,23.64v47.13h18.52v-46.31    c0-16.47,6.97-24.46,19.2-24.46c12.23,0,19.24,7.34,19.15,23.64v47.13h18.52v-47.13c0-27.72-13.37-39.3-35.55-39.3    c-14.19,0-23.97,5.06-29.51,15.82h-1.63c-5.54-11.09-15.49-15.82-29.84-15.82c-22.18,0-35.71,12.39-35.71,40.12v46.31H302.69z"></path>
		<path class="st0" d="M474.18,103.18c-24.74,0-44.75,20.06-44.75,44.8v73.5h18.52v-37.18c7.37,5.33,16.43,8.48,26.23,8.48    c24.74,0,44.8-20.05,44.8-44.79C518.98,123.24,498.92,103.18,474.18,103.18z M474.2,174.25c-14.49,0-26.27-11.79-26.27-26.27    c0-14.49,11.79-26.28,26.27-26.28c14.49,0,26.28,11.79,26.28,26.28C500.47,162.46,488.69,174.25,474.2,174.25z"></path>
	</g>
	<g>
		<path class="st0" d="M652.23,88.22c0-2.26,0.43-4.38,1.3-6.37c0.86-1.99,2.04-3.72,3.53-5.18c1.49-1.46,3.23-2.63,5.22-3.49    c1.99-0.86,4.12-1.3,6.37-1.3c2.26,0,4.38,0.43,6.37,1.3c1.99,0.86,3.73,2.03,5.22,3.49c1.49,1.46,2.66,3.19,3.53,5.18    c0.86,1.99,1.3,4.12,1.3,6.37c0,2.26-0.43,4.37-1.3,6.34c-0.86,1.97-2.04,3.68-3.53,5.15c-1.49,1.46-3.23,2.62-5.22,3.46    c-1.99,0.84-4.12,1.26-6.37,1.26c-2.26,0-4.38-0.42-6.37-1.26c-1.99-0.84-3.73-1.99-5.22-3.46c-1.49-1.46-2.66-3.18-3.53-5.15    C652.66,92.59,652.23,90.48,652.23,88.22z M654.82,88.22c0,1.87,0.36,3.65,1.08,5.33c0.72,1.68,1.7,3.16,2.95,4.43    c1.25,1.27,2.71,2.27,4.39,2.99c1.68,0.72,3.48,1.08,5.4,1.08s3.72-0.36,5.4-1.08c1.68-0.72,3.14-1.72,4.39-2.99    c1.25-1.27,2.23-2.75,2.95-4.43c0.72-1.68,1.08-3.46,1.08-5.33c0-1.92-0.36-3.72-1.08-5.4c-0.72-1.68-1.7-3.14-2.95-4.39    c-1.25-1.25-2.71-2.23-4.39-2.95c-1.68-0.72-3.48-1.08-5.4-1.08s-3.72,0.36-5.4,1.08c-1.68,0.72-3.14,1.7-4.39,2.95    c-1.25,1.25-2.23,2.71-2.95,4.39C655.18,84.51,654.82,86.31,654.82,88.22z M672.6,97.22l-3.96-7.13h-2.59v7.13h-4.39V78.79h7.92    c0.86,0,1.7,0.1,2.52,0.29c0.82,0.19,1.56,0.5,2.23,0.94c0.67,0.43,1.21,1.02,1.62,1.76c0.41,0.74,0.61,1.67,0.61,2.77    c0,1.25-0.35,2.28-1.04,3.1c-0.7,0.82-1.57,1.42-2.63,1.8l4.9,7.78H672.6z M669.43,86.93c0.67,0,1.28-0.22,1.84-0.65    s0.83-1.01,0.83-1.73c0-0.77-0.31-1.32-0.94-1.66c-0.62-0.33-1.2-0.5-1.73-0.5h-3.38v4.54H669.43z"></path>
	</g>
</g>
</svg>
